<mxfile host="app.diagrams.net" modified="2022-03-06T07:32:24.165Z" agent="5.0 (Macintosh; Intel Mac OS X 10_14_0) AppleWebKit/537.36 (KHTML, like Gecko) Chrome/98.0.4758.109 Safari/537.36" etag="qzqzULFKn_2sb_YptRYv" version="15.9.1" type="github">
  <diagram id="C5RBs43oDa-KdzZeNtuy" name="Page-1">
    <mxGraphModel dx="946" dy="589" grid="1" gridSize="10" guides="1" tooltips="1" connect="1" arrows="1" fold="1" page="1" pageScale="1" pageWidth="827" pageHeight="1169" math="0" shadow="0">
      <root>
        <mxCell id="WIyWlLk6GJQsqaUBKTNV-0" />
        <mxCell id="WIyWlLk6GJQsqaUBKTNV-1" parent="WIyWlLk6GJQsqaUBKTNV-0" />
        <mxCell id="sdigvvHz4MZN_iJl-zy--4" style="edgeStyle=orthogonalEdgeStyle;rounded=0;orthogonalLoop=1;jettySize=auto;html=1;entryX=0.5;entryY=0;entryDx=0;entryDy=0;" parent="WIyWlLk6GJQsqaUBKTNV-1" source="WIyWlLk6GJQsqaUBKTNV-3" target="sdigvvHz4MZN_iJl-zy--3" edge="1">
          <mxGeometry relative="1" as="geometry" />
        </mxCell>
        <mxCell id="WIyWlLk6GJQsqaUBKTNV-3" value="&lt;font style=&quot;font-size: 15px&quot;&gt;Smart devices collect data&lt;/font&gt;" style="rounded=1;whiteSpace=wrap;html=1;fontSize=12;glass=0;strokeWidth=1;shadow=0;" parent="WIyWlLk6GJQsqaUBKTNV-1" vertex="1">
          <mxGeometry x="150" y="190" width="120" height="40" as="geometry" />
        </mxCell>
        <mxCell id="sdigvvHz4MZN_iJl-zy--6" value="" style="edgeStyle=orthogonalEdgeStyle;rounded=0;orthogonalLoop=1;jettySize=auto;html=1;" parent="WIyWlLk6GJQsqaUBKTNV-1" source="sdigvvHz4MZN_iJl-zy--3" target="sdigvvHz4MZN_iJl-zy--5" edge="1">
          <mxGeometry relative="1" as="geometry" />
        </mxCell>
        <mxCell id="sdigvvHz4MZN_iJl-zy--3" value="&lt;font style=&quot;font-size: 15px&quot;&gt;Upload data to terminals&lt;/font&gt;" style="rounded=0;whiteSpace=wrap;html=1;" parent="WIyWlLk6GJQsqaUBKTNV-1" vertex="1">
          <mxGeometry x="150" y="260" width="120" height="40" as="geometry" />
        </mxCell>
        <mxCell id="sdigvvHz4MZN_iJl-zy--15" value="" style="edgeStyle=orthogonalEdgeStyle;rounded=0;orthogonalLoop=1;jettySize=auto;html=1;" parent="WIyWlLk6GJQsqaUBKTNV-1" source="sdigvvHz4MZN_iJl-zy--5" target="sdigvvHz4MZN_iJl-zy--14" edge="1">
          <mxGeometry relative="1" as="geometry" />
        </mxCell>
        <mxCell id="sdigvvHz4MZN_iJl-zy--5" value="&lt;font style=&quot;font-size: 15px&quot;&gt;Upload data to blockchain network&lt;/font&gt;" style="whiteSpace=wrap;html=1;rounded=0;" parent="WIyWlLk6GJQsqaUBKTNV-1" vertex="1">
          <mxGeometry x="145" y="340" width="130" height="50" as="geometry" />
        </mxCell>
        <mxCell id="sdigvvHz4MZN_iJl-zy--13" value="&lt;font style=&quot;font-size: 13px&quot;&gt;Yes&lt;/font&gt;" style="edgeStyle=orthogonalEdgeStyle;rounded=0;orthogonalLoop=1;jettySize=auto;html=1;" parent="WIyWlLk6GJQsqaUBKTNV-1" source="sdigvvHz4MZN_iJl-zy--7" target="sdigvvHz4MZN_iJl-zy--12" edge="1">
          <mxGeometry relative="1" as="geometry" />
        </mxCell>
        <mxCell id="sdigvvHz4MZN_iJl-zy--21" value="" style="edgeStyle=orthogonalEdgeStyle;rounded=0;orthogonalLoop=1;jettySize=auto;html=1;" parent="WIyWlLk6GJQsqaUBKTNV-1" source="sdigvvHz4MZN_iJl-zy--7" target="sdigvvHz4MZN_iJl-zy--20" edge="1">
          <mxGeometry relative="1" as="geometry" />
        </mxCell>
        <mxCell id="sdigvvHz4MZN_iJl-zy--24" value="&lt;font style=&quot;font-size: 13px&quot;&gt;No&lt;/font&gt;" style="edgeLabel;html=1;align=center;verticalAlign=middle;resizable=0;points=[];" parent="sdigvvHz4MZN_iJl-zy--21" vertex="1" connectable="0">
          <mxGeometry x="-0.1636" y="-3" relative="1" as="geometry">
            <mxPoint as="offset" />
          </mxGeometry>
        </mxCell>
        <mxCell id="sdigvvHz4MZN_iJl-zy--7" value="&lt;font style=&quot;font-size: 15px&quot;&gt;Any potential health problem?&amp;nbsp;&lt;/font&gt;" style="rhombus;whiteSpace=wrap;html=1;rounded=0;" parent="WIyWlLk6GJQsqaUBKTNV-1" vertex="1">
          <mxGeometry x="323.38" y="390" width="172.25" height="120" as="geometry" />
        </mxCell>
        <mxCell id="sdigvvHz4MZN_iJl-zy--18" value="" style="edgeStyle=orthogonalEdgeStyle;rounded=0;orthogonalLoop=1;jettySize=auto;html=1;" parent="WIyWlLk6GJQsqaUBKTNV-1" source="sdigvvHz4MZN_iJl-zy--12" target="sdigvvHz4MZN_iJl-zy--17" edge="1">
          <mxGeometry relative="1" as="geometry" />
        </mxCell>
        <mxCell id="sdigvvHz4MZN_iJl-zy--12" value="&lt;font style=&quot;font-size: 15px&quot;&gt;Authorize hospital to check user EHR&lt;/font&gt;" style="whiteSpace=wrap;html=1;rounded=0;" parent="WIyWlLk6GJQsqaUBKTNV-1" vertex="1">
          <mxGeometry x="349.5" y="270" width="120" height="70" as="geometry" />
        </mxCell>
        <mxCell id="sdigvvHz4MZN_iJl-zy--16" style="edgeStyle=orthogonalEdgeStyle;rounded=0;orthogonalLoop=1;jettySize=auto;html=1;" parent="WIyWlLk6GJQsqaUBKTNV-1" source="sdigvvHz4MZN_iJl-zy--14" target="sdigvvHz4MZN_iJl-zy--7" edge="1">
          <mxGeometry relative="1" as="geometry" />
        </mxCell>
        <mxCell id="sdigvvHz4MZN_iJl-zy--14" value="&lt;span&gt;&lt;font style=&quot;font-size: 15px&quot;&gt;Estimate healthcare data by ML model&lt;/font&gt;&lt;/span&gt;" style="whiteSpace=wrap;html=1;rounded=0;" parent="WIyWlLk6GJQsqaUBKTNV-1" vertex="1">
          <mxGeometry x="150" y="420" width="120" height="60" as="geometry" />
        </mxCell>
        <mxCell id="sdigvvHz4MZN_iJl-zy--23" value="" style="edgeStyle=orthogonalEdgeStyle;rounded=0;orthogonalLoop=1;jettySize=auto;html=1;" parent="WIyWlLk6GJQsqaUBKTNV-1" source="sdigvvHz4MZN_iJl-zy--17" target="sdigvvHz4MZN_iJl-zy--22" edge="1">
          <mxGeometry relative="1" as="geometry" />
        </mxCell>
        <mxCell id="sdigvvHz4MZN_iJl-zy--17" value="&lt;font style=&quot;font-size: 15px&quot;&gt;Doctor check user&#39;s data and updates notes&lt;/font&gt;" style="whiteSpace=wrap;html=1;rounded=0;" parent="WIyWlLk6GJQsqaUBKTNV-1" vertex="1">
          <mxGeometry x="345" y="180" width="129" height="60" as="geometry" />
        </mxCell>
        <mxCell id="sdigvvHz4MZN_iJl-zy--20" value="&lt;font style=&quot;font-size: 15px&quot;&gt;Next date collection&lt;/font&gt;" style="rounded=1;whiteSpace=wrap;html=1;" parent="WIyWlLk6GJQsqaUBKTNV-1" vertex="1">
          <mxGeometry x="570" y="430" width="100" height="40" as="geometry" />
        </mxCell>
        <mxCell id="sdigvvHz4MZN_iJl-zy--22" value="&lt;font style=&quot;font-size: 15px&quot;&gt;Next data collection&lt;/font&gt;" style="rounded=1;whiteSpace=wrap;html=1;" parent="WIyWlLk6GJQsqaUBKTNV-1" vertex="1">
          <mxGeometry x="560" y="190" width="100" height="40" as="geometry" />
        </mxCell>
      </root>
    </mxGraphModel>
  </diagram>
</mxfile>
